<svg width="25" height="25" viewBox="0 0 25 25" fill="none" xmlns="http://www.w3.org/2000/svg">
<path d="M15.075 19.2376L14.225 21.6626C14.1583 21.8459 14.0417 21.9959 13.875 22.1126C13.7083 22.2293 13.525 22.2876 13.325 22.2876C12.9917 22.2876 12.7208 22.1501 12.5125 21.8751C12.3042 21.6001 12.2667 21.2959 12.4 20.9626L16.2 10.9126C16.2833 10.7293 16.4083 10.5793 16.575 10.4626C16.7417 10.3459 16.925 10.2876 17.125 10.2876H17.875C18.075 10.2876 18.2583 10.3459 18.425 10.4626C18.5917 10.5793 18.7167 10.7293 18.8 10.9126L22.6 20.9876C22.7333 21.3043 22.7 21.6001 22.5 21.8751C22.3 22.1501 22.0333 22.2876 21.7 22.2876C21.4833 22.2876 21.2958 22.2293 21.1375 22.1126C20.9792 21.9959 20.8583 21.8376 20.775 21.6376L19.925 19.2376H15.075ZM9.05 14.2626L4.7 18.5876C4.51667 18.7709 4.2875 18.8668 4.0125 18.8751C3.7375 18.8834 3.5 18.7876 3.3 18.5876C3.11667 18.4043 3.025 18.1709 3.025 17.8876C3.025 17.6043 3.11667 17.3709 3.3 17.1876L7.65 12.8376C7.06667 12.2543 6.5375 11.5876 6.0625 10.8376C5.5875 10.0876 5.15 9.2376 4.75 8.2876H6.85C7.18333 8.9376 7.51667 9.50426 7.85 9.9876C8.18333 10.4709 8.58333 10.9543 9.05 11.4376C9.6 10.8876 10.1708 10.1168 10.7625 9.1251C11.3542 8.13343 11.8 7.1876 12.1 6.2876H2C1.71667 6.2876 1.47917 6.19176 1.2875 6.0001C1.09583 5.80843 1 5.57093 1 5.2876C1 5.00426 1.09583 4.76676 1.2875 4.5751C1.47917 4.38343 1.71667 4.2876 2 4.2876H8V3.2876C8 3.00426 8.09583 2.76676 8.2875 2.5751C8.47917 2.38343 8.71667 2.2876 9 2.2876C9.28333 2.2876 9.52083 2.38343 9.7125 2.5751C9.90417 2.76676 10 3.00426 10 3.2876V4.2876H16C16.2833 4.2876 16.5208 4.38343 16.7125 4.5751C16.9042 4.76676 17 5.00426 17 5.2876C17 5.57093 16.9042 5.80843 16.7125 6.0001C16.5208 6.19176 16.2833 6.2876 16 6.2876H14.1C13.75 7.4876 13.225 8.72093 12.525 9.9876C11.825 11.2543 11.1333 12.2209 10.45 12.8876L12.85 15.3376L12.1 17.3876L9.05 14.2626ZM15.7 17.4876H19.3L17.5 12.3876L15.7 17.4876Z" fill="#000807"/>
</svg>
