<svg width="24" height="25" viewBox="0 0 24 25" fill="none" xmlns="http://www.w3.org/2000/svg">
<path d="M19 12.2875C19 10.9042 18.6333 9.64167 17.9 8.5C17.1667 7.35833 16.1833 6.50417 14.95 5.9375C14.7 5.82083 14.5167 5.64167 14.4 5.4C14.2833 5.15833 14.2667 4.9125 14.35 4.6625C14.45 4.39583 14.6292 4.20417 14.8875 4.0875C15.1458 3.97083 15.4083 3.97083 15.675 4.0875C17.2917 4.80417 18.5833 5.9 19.55 7.375C20.5167 8.85 21 10.4875 21 12.2875C21 14.0875 20.5167 15.725 19.55 17.2C18.5833 18.675 17.2917 19.7708 15.675 20.4875C15.4083 20.6042 15.1458 20.6042 14.8875 20.4875C14.6292 20.3708 14.45 20.1792 14.35 19.9125C14.2667 19.6625 14.2833 19.4167 14.4 19.175C14.5167 18.9333 14.7 18.7542 14.95 18.6375C16.1833 18.0708 17.1667 17.2167 17.9 16.075C18.6333 14.9333 19 13.6708 19 12.2875ZM7 15.3125H4C3.71667 15.3125 3.47917 15.2167 3.2875 15.025C3.09583 14.8333 3 14.5958 3 14.3125V10.3125C3 10.0292 3.09583 9.79167 3.2875 9.6C3.47917 9.40833 3.71667 9.3125 4 9.3125H7L10.3 6.0125C10.6167 5.69583 10.9792 5.625 11.3875 5.8C11.7958 5.975 12 6.2875 12 6.7375V17.8875C12 18.3375 11.7958 18.65 11.3875 18.825C10.9792 19 10.6167 18.9292 10.3 18.6125L7 15.3125ZM16.5 12.3125C16.5 13.0125 16.3417 13.675 16.025 14.3C15.7083 14.925 15.2917 15.4375 14.775 15.8375C14.6083 15.9375 14.4375 15.9417 14.2625 15.85C14.0875 15.7583 14 15.6125 14 15.4125V9.1625C14 8.9625 14.0875 8.81667 14.2625 8.725C14.4375 8.63333 14.6083 8.6375 14.775 8.7375C15.2917 9.15417 15.7083 9.67917 16.025 10.3125C16.3417 10.9458 16.5 11.6125 16.5 12.3125ZM10 9.1625L7.85 11.3125H5V13.3125H7.85L10 15.4625V9.1625Z" fill="#E8EAED"/>
</svg>
