<svg width="24" height="14" viewBox="0 0 24 14" fill="none" xmlns="http://www.w3.org/2000/svg">
<path d="M6.5385 11.5384C5.28283 11.5384 4.2125 11.0959 3.3275 10.2109C2.4425 9.32609 2 8.25593 2 7.00042C2 5.74493 2.4425 4.67459 3.3275 3.78943C4.2125 2.90409 5.28283 2.46143 6.5385 2.46143H9.55775C9.77025 2.46143 9.94833 2.53334 10.092 2.67718C10.2358 2.82101 10.3077 2.99926 10.3077 3.21192C10.3077 3.42442 10.2358 3.60251 10.092 3.74617C9.94833 3.88967 9.77025 3.96143 9.55775 3.96143H6.53725C5.69825 3.96143 4.98233 4.25792 4.3895 4.85092C3.7965 5.44392 3.5 6.16026 3.5 6.99993C3.5 7.83959 3.7965 8.55592 4.3895 9.14893C4.98233 9.74193 5.69825 10.0384 6.53725 10.0384H9.55775C9.77025 10.0384 9.94833 10.1103 10.092 10.2542C10.2358 10.398 10.3077 10.5762 10.3077 10.7887C10.3077 11.0013 10.2358 11.1794 10.092 11.3229C9.94833 11.4666 9.77025 11.5384 9.55775 11.5384H6.5385ZM8.5 7.74993C8.2875 7.74993 8.10942 7.67801 7.96575 7.53418C7.82192 7.39034 7.75 7.21217 7.75 6.99968C7.75 6.78701 7.82192 6.60893 7.96575 6.46543C8.10942 6.32176 8.2875 6.24993 8.5 6.24993H14.5C14.7125 6.24993 14.8906 6.32184 15.0343 6.46568C15.1781 6.60951 15.25 6.78768 15.25 7.00018C15.25 7.21284 15.1781 7.39093 15.0343 7.53443C14.8906 7.67809 14.7125 7.74993 14.5 7.74993H8.5ZM13.4423 11.5384C13.2298 11.5384 13.0517 11.4665 12.908 11.3227C12.7642 11.1788 12.6923 11.0006 12.6923 10.7879C12.6923 10.5754 12.7642 10.3973 12.908 10.2537C13.0517 10.1102 13.2298 10.0384 13.4423 10.0384H16.4628C17.3018 10.0384 18.0177 9.74193 18.6105 9.14893C19.2035 8.55592 19.5 7.83959 19.5 6.99993C19.5 6.16026 19.2035 5.44392 18.6105 4.85092C18.0177 4.25792 17.3018 3.96143 16.4628 3.96143H13.4423C13.2298 3.96143 13.0517 3.88951 12.908 3.74568C12.7642 3.60184 12.6923 3.42368 12.6923 3.21118C12.6923 2.99851 12.7642 2.82043 12.908 2.67693C13.0517 2.53326 13.2298 2.46143 13.4423 2.46143H16.4615C17.7172 2.46143 18.7875 2.90393 19.6725 3.78893C20.5575 4.67376 21 5.74393 21 6.99943C21 8.25493 20.5575 9.32526 19.6725 10.2104C18.7875 11.0958 17.7172 11.5384 16.4615 11.5384H13.4423Z" fill="#FEFEFF"/>
</svg>
